<svg xmlns="http://www.w3.org/2000/svg" xmlns:xlink="http://www.w3.org/1999/xlink" width="120" zoomAndPan="magnify" viewBox="0 0 90 44.999999" height="60" preserveAspectRatio="xMidYMid meet" version="1.0"><defs><g/><clipPath id="id1"><path d="M 3.449219 14.800781 L 22 14.800781 L 22 30 L 3.449219 30 Z M 3.449219 14.800781 " clip-rule="nonzero"/></clipPath><clipPath id="id2"><path d="M 6 20 L 23.699219 20 L 23.699219 30.550781 L 6 30.550781 Z M 6 20 " clip-rule="nonzero"/></clipPath><clipPath id="id3"><path d="M 7 21 L 23.699219 21 L 23.699219 30.550781 L 7 30.550781 Z M 7 21 " clip-rule="nonzero"/></clipPath><clipPath id="id4"><path d="M 6 20 L 23.699219 20 L 23.699219 30.550781 L 6 30.550781 Z M 6 20 " clip-rule="nonzero"/></clipPath></defs><g fill="#5864ff" fill-opacity="1"><g transform="translate(24.770787, 27.374998)"><g><path d="M 15.6875 -11.0625 C 15.832031 -11.0625 15.945312 -11.023438 16.03125 -10.953125 C 16.113281 -10.878906 16.15625 -10.773438 16.15625 -10.640625 C 16.15625 -10.597656 16.144531 -10.539062 16.125 -10.46875 L 13.109375 -0.375 C 13.054688 -0.238281 12.988281 -0.140625 12.90625 -0.078125 C 12.832031 -0.0234375 12.71875 0 12.5625 0 L 10.515625 0 C 10.222656 0 10.039062 -0.125 9.96875 -0.375 L 8.421875 -5.625 C 8.390625 -5.75 8.351562 -5.8125 8.3125 -5.8125 C 8.28125 -5.8125 8.238281 -5.738281 8.1875 -5.59375 L 6.640625 -0.375 C 6.609375 -0.238281 6.546875 -0.140625 6.453125 -0.078125 C 6.367188 -0.0234375 6.253906 0 6.109375 0 L 3.984375 0 C 3.828125 0 3.707031 -0.0234375 3.625 -0.078125 C 3.550781 -0.140625 3.488281 -0.238281 3.4375 -0.375 L 0.40625 -10.46875 C 0.382812 -10.539062 0.375 -10.597656 0.375 -10.640625 C 0.375 -10.773438 0.414062 -10.878906 0.5 -10.953125 C 0.582031 -11.023438 0.695312 -11.0625 0.84375 -11.0625 L 3.3125 -11.0625 C 3.457031 -11.0625 3.5625 -11.035156 3.625 -10.984375 C 3.695312 -10.929688 3.75 -10.851562 3.78125 -10.75 L 5.359375 -5.21875 C 5.390625 -5.09375 5.425781 -5.03125 5.46875 -5.03125 C 5.5 -5.03125 5.523438 -5.070312 5.546875 -5.15625 L 7.109375 -10.75 C 7.160156 -10.957031 7.320312 -11.0625 7.59375 -11.0625 L 9.671875 -11.0625 C 9.816406 -11.0625 9.925781 -11.035156 10 -10.984375 C 10.070312 -10.929688 10.125 -10.851562 10.15625 -10.75 L 11.796875 -5.078125 C 11.816406 -5.023438 11.84375 -4.992188 11.875 -4.984375 C 11.914062 -4.972656 11.941406 -4.992188 11.953125 -5.046875 L 13.46875 -10.75 C 13.519531 -10.957031 13.679688 -11.0625 13.953125 -11.0625 Z M 15.6875 -11.0625 "/></g></g></g><g fill="#5864ff" fill-opacity="1"><g transform="translate(41.301857, 27.374998)"><g><path d="M 3.390625 -3.15625 C 3.390625 -2.71875 3.53125 -2.382812 3.8125 -2.15625 C 4.09375 -1.925781 4.460938 -1.8125 4.921875 -1.8125 C 5.191406 -1.8125 5.445312 -1.875 5.6875 -2 C 5.9375 -2.125 6.222656 -2.34375 6.546875 -2.65625 C 6.585938 -2.695312 6.625 -2.71875 6.65625 -2.71875 C 6.695312 -2.71875 6.765625 -2.703125 6.859375 -2.671875 L 8.21875 -2.109375 C 8.300781 -2.085938 8.34375 -2.03125 8.34375 -1.9375 C 8.34375 -1.875 8.316406 -1.816406 8.265625 -1.765625 C 7.753906 -1.035156 7.21875 -0.53125 6.65625 -0.25 C 6.09375 0.0195312 5.378906 0.15625 4.515625 0.15625 C 3.734375 0.15625 3.019531 -0.0078125 2.375 -0.34375 C 1.738281 -0.6875 1.234375 -1.160156 0.859375 -1.765625 C 0.492188 -2.367188 0.3125 -3.050781 0.3125 -3.8125 C 0.3125 -4.632812 0.5 -5.363281 0.875 -6 C 1.257812 -6.644531 1.769531 -7.144531 2.40625 -7.5 C 3.039062 -7.863281 3.722656 -8.046875 4.453125 -8.046875 C 5.242188 -8.046875 5.941406 -7.875 6.546875 -7.53125 C 7.160156 -7.195312 7.640625 -6.707031 7.984375 -6.0625 C 8.335938 -5.425781 8.515625 -4.664062 8.515625 -3.78125 C 8.515625 -3.644531 8.5 -3.550781 8.46875 -3.5 C 8.4375 -3.445312 8.363281 -3.414062 8.25 -3.40625 L 3.609375 -3.40625 C 3.460938 -3.40625 3.390625 -3.320312 3.390625 -3.15625 Z M 5.359375 -4.953125 C 5.460938 -4.953125 5.53125 -4.960938 5.5625 -4.984375 C 5.601562 -5.003906 5.625 -5.0625 5.625 -5.15625 C 5.625 -5.40625 5.53125 -5.660156 5.34375 -5.921875 C 5.164062 -6.179688 4.914062 -6.3125 4.59375 -6.3125 C 4.257812 -6.3125 3.976562 -6.195312 3.75 -5.96875 C 3.519531 -5.738281 3.410156 -5.40625 3.421875 -4.96875 Z M 5.359375 -4.953125 "/></g></g></g><g fill="#5864ff" fill-opacity="1"><g transform="translate(50.096561, 27.374998)"><g><path d="M 3.390625 -3.15625 C 3.390625 -2.71875 3.53125 -2.382812 3.8125 -2.15625 C 4.09375 -1.925781 4.460938 -1.8125 4.921875 -1.8125 C 5.191406 -1.8125 5.445312 -1.875 5.6875 -2 C 5.9375 -2.125 6.222656 -2.34375 6.546875 -2.65625 C 6.585938 -2.695312 6.625 -2.71875 6.65625 -2.71875 C 6.695312 -2.71875 6.765625 -2.703125 6.859375 -2.671875 L 8.21875 -2.109375 C 8.300781 -2.085938 8.34375 -2.03125 8.34375 -1.9375 C 8.34375 -1.875 8.316406 -1.816406 8.265625 -1.765625 C 7.753906 -1.035156 7.21875 -0.53125 6.65625 -0.25 C 6.09375 0.0195312 5.378906 0.15625 4.515625 0.15625 C 3.734375 0.15625 3.019531 -0.0078125 2.375 -0.34375 C 1.738281 -0.6875 1.234375 -1.160156 0.859375 -1.765625 C 0.492188 -2.367188 0.3125 -3.050781 0.3125 -3.8125 C 0.3125 -4.632812 0.5 -5.363281 0.875 -6 C 1.257812 -6.644531 1.769531 -7.144531 2.40625 -7.5 C 3.039062 -7.863281 3.722656 -8.046875 4.453125 -8.046875 C 5.242188 -8.046875 5.941406 -7.875 6.546875 -7.53125 C 7.160156 -7.195312 7.640625 -6.707031 7.984375 -6.0625 C 8.335938 -5.425781 8.515625 -4.664062 8.515625 -3.78125 C 8.515625 -3.644531 8.5 -3.550781 8.46875 -3.5 C 8.4375 -3.445312 8.363281 -3.414062 8.25 -3.40625 L 3.609375 -3.40625 C 3.460938 -3.40625 3.390625 -3.320312 3.390625 -3.15625 Z M 5.359375 -4.953125 C 5.460938 -4.953125 5.53125 -4.960938 5.5625 -4.984375 C 5.601562 -5.003906 5.625 -5.0625 5.625 -5.15625 C 5.625 -5.40625 5.53125 -5.660156 5.34375 -5.921875 C 5.164062 -6.179688 4.914062 -6.3125 4.59375 -6.3125 C 4.257812 -6.3125 3.976562 -6.195312 3.75 -5.96875 C 3.519531 -5.738281 3.410156 -5.40625 3.421875 -4.96875 Z M 5.359375 -4.953125 "/></g></g></g><g fill="#5864ff" fill-opacity="1"><g transform="translate(58.891265, 27.374998)"><g><path d="M 4.8125 -0.625 C 4.195312 -0.101562 3.476562 0.15625 2.65625 0.15625 C 1.925781 0.15625 1.34375 -0.046875 0.90625 -0.453125 C 0.476562 -0.867188 0.265625 -1.394531 0.265625 -2.03125 C 0.265625 -2.601562 0.453125 -3.109375 0.828125 -3.546875 C 1.203125 -3.992188 1.734375 -4.335938 2.421875 -4.578125 C 3.109375 -4.828125 3.914062 -4.953125 4.84375 -4.953125 L 4.953125 -4.953125 C 5.097656 -4.953125 5.171875 -5.019531 5.171875 -5.15625 L 5.171875 -5.40625 C 5.171875 -5.988281 4.878906 -6.28125 4.296875 -6.28125 C 4.054688 -6.28125 3.832031 -6.222656 3.625 -6.109375 C 3.414062 -6.003906 3.25 -5.828125 3.125 -5.578125 C 3.09375 -5.503906 3.0625 -5.453125 3.03125 -5.421875 C 3 -5.398438 2.953125 -5.390625 2.890625 -5.390625 C 2.816406 -5.390625 2.765625 -5.394531 2.734375 -5.40625 L 0.78125 -5.796875 C 0.664062 -5.816406 0.609375 -5.882812 0.609375 -6 C 0.609375 -6.0625 0.628906 -6.15625 0.671875 -6.28125 C 1.085938 -7.457031 2.335938 -8.046875 4.421875 -8.046875 C 5.722656 -8.046875 6.644531 -7.832031 7.1875 -7.40625 C 7.726562 -6.976562 8 -6.375 8 -5.59375 L 8 -0.40625 C 8 -0.25 7.976562 -0.140625 7.9375 -0.078125 C 7.894531 -0.0234375 7.800781 0 7.65625 0 L 5.625 0 C 5.5 0 5.410156 -0.0390625 5.359375 -0.125 C 5.304688 -0.21875 5.265625 -0.347656 5.234375 -0.515625 L 5.21875 -0.625 C 5.207031 -0.726562 5.164062 -0.78125 5.09375 -0.78125 C 5.019531 -0.78125 4.925781 -0.726562 4.8125 -0.625 Z M 5.171875 -3.34375 C 5.171875 -3.4375 5.15625 -3.503906 5.125 -3.546875 C 5.09375 -3.585938 5.035156 -3.609375 4.953125 -3.609375 L 4.890625 -3.609375 C 4.703125 -3.609375 4.46875 -3.5625 4.1875 -3.46875 C 3.914062 -3.382812 3.675781 -3.253906 3.46875 -3.078125 C 3.257812 -2.898438 3.15625 -2.6875 3.15625 -2.4375 C 3.15625 -2.21875 3.226562 -2.046875 3.375 -1.921875 C 3.53125 -1.796875 3.742188 -1.734375 4.015625 -1.734375 C 4.328125 -1.734375 4.597656 -1.828125 4.828125 -2.015625 C 5.054688 -2.203125 5.171875 -2.378906 5.171875 -2.546875 Z M 5.171875 -3.34375 "/></g></g></g><g fill="#5864ff" fill-opacity="1"><g transform="translate(67.432562, 27.374998)"><g><path d="M 0.671875 0 C 0.523438 0 0.421875 -0.0234375 0.359375 -0.078125 C 0.304688 -0.128906 0.28125 -0.226562 0.28125 -0.375 L 0.28125 -1.046875 C 0.28125 -1.203125 0.296875 -1.316406 0.328125 -1.390625 C 0.367188 -1.472656 0.457031 -1.609375 0.59375 -1.796875 L 3.765625 -5.84375 C 3.804688 -5.894531 3.828125 -5.941406 3.828125 -5.984375 C 3.828125 -6.046875 3.757812 -6.078125 3.625 -6.078125 L 0.9375 -6.078125 C 0.8125 -6.078125 0.722656 -6.101562 0.671875 -6.15625 C 0.628906 -6.207031 0.609375 -6.296875 0.609375 -6.421875 L 0.609375 -7.609375 C 0.609375 -7.691406 0.632812 -7.757812 0.6875 -7.8125 C 0.738281 -7.875 0.800781 -7.90625 0.875 -7.90625 L 7.453125 -7.90625 C 7.546875 -7.90625 7.613281 -7.875 7.65625 -7.8125 C 7.707031 -7.757812 7.734375 -7.691406 7.734375 -7.609375 L 7.734375 -6.84375 C 7.734375 -6.726562 7.710938 -6.628906 7.671875 -6.546875 C 7.640625 -6.472656 7.578125 -6.367188 7.484375 -6.234375 L 4.234375 -2.125 C 4.179688 -2.050781 4.15625 -2 4.15625 -1.96875 C 4.15625 -1.882812 4.222656 -1.84375 4.359375 -1.84375 L 7.40625 -1.84375 C 7.632812 -1.84375 7.75 -1.75 7.75 -1.5625 L 7.75 -0.328125 C 7.75 -0.222656 7.71875 -0.140625 7.65625 -0.078125 C 7.59375 -0.0234375 7.5 0 7.375 0 Z M 0.671875 0 "/></g></g></g><g fill="#5864ff" fill-opacity="1"><g transform="translate(75.541582, 27.374998)"><g><path d="M 1.515625 2.453125 C 1.191406 2.453125 0.972656 2.429688 0.859375 2.390625 C 0.742188 2.359375 0.6875 2.269531 0.6875 2.125 L 0.6875 0.609375 C 0.6875 0.535156 0.71875 0.46875 0.78125 0.40625 C 0.84375 0.351562 0.953125 0.328125 1.109375 0.328125 L 2.15625 0.328125 C 2.445312 0.328125 2.6875 0.257812 2.875 0.125 C 3.0625 0 3.15625 -0.144531 3.15625 -0.3125 C 3.15625 -0.351562 3.144531 -0.40625 3.125 -0.46875 L 0.234375 -7.46875 C 0.210938 -7.53125 0.203125 -7.578125 0.203125 -7.609375 C 0.203125 -7.691406 0.234375 -7.757812 0.296875 -7.8125 C 0.359375 -7.875 0.429688 -7.90625 0.515625 -7.90625 L 3.046875 -7.90625 C 3.128906 -7.90625 3.207031 -7.875 3.28125 -7.8125 C 3.351562 -7.757812 3.398438 -7.691406 3.421875 -7.609375 L 4.703125 -4.03125 C 4.722656 -3.925781 4.757812 -3.875 4.8125 -3.875 C 4.863281 -3.875 4.910156 -3.925781 4.953125 -4.03125 L 6.234375 -7.609375 C 6.316406 -7.804688 6.445312 -7.90625 6.625 -7.90625 L 8.28125 -7.90625 C 8.375 -7.90625 8.445312 -7.875 8.5 -7.8125 C 8.550781 -7.757812 8.578125 -7.691406 8.578125 -7.609375 C 8.578125 -7.578125 8.566406 -7.53125 8.546875 -7.46875 L 5.640625 -0.46875 C 5.285156 0.375 4.9375 1 4.59375 1.40625 C 4.25 1.820312 3.847656 2.097656 3.390625 2.234375 C 2.929688 2.378906 2.304688 2.453125 1.515625 2.453125 Z M 1.515625 2.453125 "/></g></g></g><g clip-path="url(#id1)"><path fill="#79cddd" d="M 17.84375 15.070312 C 18.21875 15.46875 18.820312 15.640625 19.339844 15.476562 C 19.429688 15.445312 19.519531 15.410156 19.613281 15.425781 C 19.96875 15.488281 20.203125 16.652344 20.3125 16.984375 C 20.523438 17.625 20.730469 18.269531 20.9375 18.910156 C 21.238281 19.839844 21.59375 20.757812 21.789062 21.71875 C 21.800781 21.78125 21.8125 21.84375 21.796875 21.90625 C 21.761719 22.023438 21.636719 22.078125 21.527344 22.128906 C 21.207031 22.277344 20.921875 22.519531 20.75 22.835938 C 20.628906 23.0625 20.566406 23.328125 20.585938 23.589844 C 20.597656 23.753906 20.722656 24.042969 20.609375 24.195312 C 20.566406 24.253906 20.5 24.28125 20.433594 24.304688 C 19.902344 24.519531 19.363281 24.703125 18.820312 24.894531 C 18.199219 25.121094 17.578125 25.34375 16.957031 25.570312 C 15.566406 26.070312 14.171875 26.574219 12.78125 27.074219 C 11.058594 27.691406 9.367188 28.363281 7.640625 28.96875 C 7.386719 29.054688 7.226562 29 7.152344 28.726562 C 7.085938 28.476562 7.011719 28.230469 6.871094 28.015625 C 6.628906 27.652344 6.191406 27.433594 5.765625 27.457031 C 5.644531 27.464844 5.503906 27.488281 5.414062 27.402344 C 5.371094 27.363281 5.347656 27.308594 5.328125 27.253906 C 5.140625 26.773438 4.980469 26.273438 4.820312 25.78125 C 4.390625 24.496094 3.914062 23.246094 3.574219 21.917969 C 3.457031 21.46875 3.824219 21.402344 4.117188 21.207031 C 4.3125 21.078125 4.523438 20.925781 4.628906 20.703125 C 4.78125 20.382812 4.722656 19.929688 4.683594 19.589844 C 4.675781 19.519531 4.671875 19.445312 4.691406 19.378906 C 4.738281 19.238281 4.886719 19.171875 5.023438 19.121094 C 5.714844 18.859375 6.410156 18.609375 7.109375 18.359375 C 8.066406 18.027344 9.027344 17.703125 9.984375 17.371094 C 11.328125 16.902344 12.667969 16.441406 14.011719 15.980469 C 14.59375 15.78125 15.171875 15.582031 15.75 15.382812 C 16.328125 15.183594 16.875 14.980469 17.464844 14.828125 C 17.507812 14.816406 17.554688 14.804688 17.597656 14.816406 C 17.660156 14.832031 17.699219 14.890625 17.738281 14.941406 C 17.769531 14.988281 17.804688 15.027344 17.84375 15.070312 " fill-opacity="1" fill-rule="nonzero"/></g><path fill="#67c7d5" d="M 20.3125 16.984375 C 20.203125 16.652344 19.96875 15.488281 19.613281 15.425781 C 19.519531 15.410156 19.429688 15.445312 19.339844 15.476562 C 19.269531 15.496094 19.199219 15.511719 19.128906 15.523438 C 19.410156 16.300781 19.660156 17.089844 19.886719 17.886719 C 20.175781 18.894531 20.433594 19.925781 20.59375 20.960938 C 20.621094 21.117188 20.640625 21.285156 20.578125 21.433594 C 20.519531 21.574219 20.394531 21.671875 20.285156 21.773438 C 19.828125 22.199219 19.535156 22.808594 19.488281 23.441406 C 19.480469 23.558594 19.476562 23.6875 19.414062 23.789062 C 19.34375 23.90625 19.210938 23.960938 19.085938 24.011719 C 18.71875 24.152344 18.355469 24.292969 17.988281 24.433594 C 16.15625 25.128906 14.316406 25.785156 12.460938 26.40625 C 10.636719 27.015625 8.785156 27.535156 7.003906 28.265625 C 7.066406 28.414062 7.109375 28.570312 7.152344 28.726562 C 7.226562 29 7.386719 29.054688 7.640625 28.96875 C 9.367188 28.363281 11.058594 27.691406 12.78125 27.074219 C 14.171875 26.574219 15.566406 26.070312 16.957031 25.570312 C 17.578125 25.34375 18.199219 25.121094 18.820312 24.894531 C 19.363281 24.703125 19.902344 24.519531 20.433594 24.304688 C 20.5 24.28125 20.566406 24.253906 20.609375 24.195312 C 20.722656 24.042969 20.597656 23.753906 20.585938 23.589844 C 20.566406 23.328125 20.628906 23.0625 20.75 22.835938 C 20.921875 22.519531 21.207031 22.277344 21.527344 22.128906 C 21.636719 22.078125 21.761719 22.023438 21.796875 21.90625 C 21.8125 21.84375 21.800781 21.78125 21.789062 21.71875 C 21.59375 20.757812 21.238281 19.839844 20.9375 18.910156 C 20.730469 18.269531 20.523438 17.625 20.3125 16.984375 " fill-opacity="1" fill-rule="nonzero"/><path fill="#ffffff" d="M 17.578125 15.585938 L 17.554688 15.609375 C 17.816406 15.882812 18.195312 16.039062 18.578125 16.039062 C 18.714844 16.039062 18.851562 16.019531 18.984375 15.976562 C 19.058594 15.953125 19.128906 15.925781 19.191406 15.925781 C 19.203125 15.925781 19.214844 15.929688 19.226562 15.929688 C 19.261719 15.933594 19.296875 15.953125 19.332031 15.984375 C 19.390625 16.042969 19.449219 16.136719 19.503906 16.253906 C 19.585938 16.425781 19.652344 16.648438 19.710938 16.847656 C 19.765625 17.046875 19.8125 17.230469 19.847656 17.332031 C 20.039062 17.917969 20.230469 18.503906 20.417969 19.089844 C 20.570312 19.574219 20.722656 20.054688 20.878906 20.539062 C 20.949219 20.757812 21.035156 20.972656 21.09375 21.195312 C 21.109375 21.246094 21.132812 21.320312 21.15625 21.40625 C 21.179688 21.488281 21.195312 21.578125 21.195312 21.652344 C 21.199219 21.707031 21.1875 21.75 21.167969 21.773438 C 21.15625 21.785156 21.136719 21.796875 21.113281 21.808594 C 20.851562 21.949219 20.597656 22.121094 20.398438 22.339844 C 20.203125 22.554688 20.058594 22.824219 20.027344 23.15625 C 20.027344 23.167969 20.027344 23.179688 20.027344 23.191406 C 20.027344 23.269531 20.046875 23.371094 20.0625 23.476562 C 20.082031 23.582031 20.101562 23.695312 20.101562 23.777344 C 20.101562 23.839844 20.089844 23.886719 20.074219 23.90625 C 20.039062 23.949219 19.984375 23.976562 19.921875 24 C 19.421875 24.199219 18.917969 24.371094 18.40625 24.550781 C 17.820312 24.761719 17.238281 24.972656 16.652344 25.183594 C 15.34375 25.65625 14.03125 26.128906 12.722656 26.601562 C 11.101562 27.183594 9.511719 27.8125 7.890625 28.378906 C 7.820312 28.402344 7.761719 28.414062 7.714844 28.414062 C 7.652344 28.414062 7.605469 28.398438 7.570312 28.363281 C 7.53125 28.328125 7.5 28.269531 7.476562 28.183594 C 7.414062 27.957031 7.34375 27.726562 7.210938 27.527344 C 6.992188 27.207031 6.613281 27.007812 6.226562 27.007812 C 6.203125 27.007812 6.175781 27.007812 6.148438 27.011719 C 6.101562 27.015625 6.054688 27.019531 6.007812 27.019531 C 5.941406 27.019531 5.882812 27.007812 5.84375 26.96875 C 5.8125 26.941406 5.792969 26.898438 5.773438 26.847656 C 5.605469 26.410156 5.457031 25.953125 5.308594 25.503906 C 4.917969 24.328125 4.480469 23.1875 4.171875 21.976562 C 4.160156 21.925781 4.152344 21.882812 4.152344 21.84375 C 4.152344 21.777344 4.167969 21.726562 4.199219 21.683594 C 4.238281 21.617188 4.308594 21.5625 4.394531 21.515625 C 4.480469 21.464844 4.578125 21.417969 4.671875 21.359375 C 4.859375 21.238281 5.0625 21.09375 5.171875 20.878906 C 5.246094 20.71875 5.269531 20.535156 5.269531 20.347656 C 5.269531 20.167969 5.25 19.988281 5.234375 19.835938 C 5.230469 19.804688 5.226562 19.773438 5.226562 19.746094 C 5.226562 19.714844 5.230469 19.683594 5.242188 19.660156 C 5.257812 19.605469 5.296875 19.5625 5.351562 19.527344 C 5.40625 19.492188 5.46875 19.464844 5.53125 19.441406 C 6.183594 19.195312 6.839844 18.957031 7.496094 18.726562 C 8.394531 18.410156 9.296875 18.105469 10.199219 17.792969 C 11.460938 17.355469 12.722656 16.917969 13.988281 16.484375 C 14.53125 16.296875 15.078125 16.109375 15.625 15.921875 C 16.164062 15.734375 16.679688 15.546875 17.234375 15.398438 C 17.261719 15.390625 17.289062 15.382812 17.3125 15.382812 C 17.324219 15.382812 17.332031 15.386719 17.34375 15.386719 C 17.363281 15.394531 17.382812 15.40625 17.398438 15.425781 C 17.417969 15.441406 17.433594 15.46875 17.453125 15.492188 C 17.484375 15.53125 17.519531 15.570312 17.554688 15.609375 L 17.601562 15.5625 C 17.566406 15.527344 17.535156 15.488281 17.503906 15.449219 C 17.488281 15.425781 17.46875 15.398438 17.445312 15.375 C 17.421875 15.351562 17.394531 15.332031 17.359375 15.320312 C 17.34375 15.316406 17.328125 15.316406 17.3125 15.316406 C 17.277344 15.316406 17.246094 15.324219 17.214844 15.332031 C 16.660156 15.480469 16.144531 15.671875 15.601562 15.855469 C 15.058594 16.042969 14.511719 16.230469 13.964844 16.417969 C 12.703125 16.855469 11.441406 17.289062 10.179688 17.726562 C 9.277344 18.039062 8.375 18.347656 7.472656 18.660156 C 6.816406 18.894531 6.164062 19.132812 5.507812 19.375 C 5.445312 19.398438 5.375 19.429688 5.316406 19.46875 C 5.253906 19.507812 5.203125 19.5625 5.179688 19.636719 C 5.164062 19.671875 5.160156 19.710938 5.160156 19.746094 C 5.160156 19.78125 5.164062 19.8125 5.167969 19.84375 C 5.183594 19.996094 5.203125 20.171875 5.203125 20.347656 C 5.203125 20.527344 5.183594 20.703125 5.113281 20.847656 C 5.015625 21.042969 4.820312 21.179688 4.636719 21.300781 C 4.519531 21.375 4.386719 21.433594 4.277344 21.507812 C 4.222656 21.546875 4.175781 21.589844 4.140625 21.644531 C 4.109375 21.699219 4.085938 21.765625 4.085938 21.84375 C 4.085938 21.890625 4.09375 21.9375 4.109375 21.992188 C 4.417969 23.207031 4.855469 24.351562 5.246094 25.527344 C 5.394531 25.976562 5.542969 26.429688 5.710938 26.875 C 5.730469 26.921875 5.753906 26.976562 5.800781 27.019531 C 5.859375 27.074219 5.9375 27.085938 6.007812 27.085938 C 6.058594 27.085938 6.109375 27.082031 6.152344 27.078125 C 6.179688 27.078125 6.203125 27.074219 6.226562 27.074219 C 6.59375 27.074219 6.953125 27.265625 7.15625 27.566406 C 7.28125 27.753906 7.351562 27.976562 7.410156 28.203125 C 7.4375 28.296875 7.472656 28.367188 7.523438 28.414062 C 7.574219 28.460938 7.640625 28.484375 7.714844 28.484375 C 7.773438 28.484375 7.839844 28.46875 7.910156 28.445312 C 9.535156 27.878906 11.125 27.246094 12.746094 26.664062 C 14.054688 26.195312 15.363281 25.722656 16.671875 25.25 C 17.257812 25.039062 17.84375 24.828125 18.429688 24.617188 C 18.9375 24.4375 19.441406 24.261719 19.945312 24.0625 C 20.007812 24.039062 20.078125 24.011719 20.125 23.949219 C 20.15625 23.90625 20.164062 23.847656 20.164062 23.777344 C 20.164062 23.683594 20.148438 23.570312 20.128906 23.464844 C 20.109375 23.359375 20.09375 23.257812 20.09375 23.191406 C 20.09375 23.179688 20.09375 23.171875 20.09375 23.164062 C 20.125 22.847656 20.257812 22.59375 20.449219 22.386719 C 20.640625 22.175781 20.886719 22.007812 21.144531 21.871094 C 21.167969 21.859375 21.199219 21.84375 21.21875 21.8125 C 21.253906 21.769531 21.261719 21.714844 21.261719 21.652344 C 21.261719 21.570312 21.242188 21.472656 21.21875 21.386719 C 21.199219 21.300781 21.171875 21.222656 21.160156 21.175781 C 21.097656 20.949219 21.011719 20.734375 20.941406 20.515625 C 20.785156 20.035156 20.636719 19.550781 20.480469 19.070312 C 20.292969 18.480469 20.101562 17.894531 19.910156 17.308594 C 19.859375 17.160156 19.78125 16.816406 19.671875 16.503906 C 19.621094 16.347656 19.558594 16.195312 19.488281 16.082031 C 19.453125 16.023438 19.414062 15.972656 19.375 15.933594 C 19.332031 15.898438 19.289062 15.871094 19.238281 15.863281 C 19.222656 15.859375 19.207031 15.859375 19.191406 15.859375 C 19.109375 15.859375 19.035156 15.890625 18.964844 15.910156 C 18.839844 15.953125 18.710938 15.972656 18.578125 15.972656 C 18.214844 15.972656 17.851562 15.820312 17.601562 15.5625 L 17.578125 15.585938 " fill-opacity="1" fill-rule="nonzero"/><path fill="#f14959" d="M 9.828125 22.476562 C 9.804688 22.464844 9.773438 22.457031 9.746094 22.457031 C 9.628906 22.449219 9.265625 22.5625 9.222656 22.574219 C 9.207031 22.578125 9.15625 22.597656 9.144531 22.585938 C 9.066406 22.476562 9.003906 22.390625 8.910156 22.277344 C 8.859375 22.210938 8.785156 22.136719 8.714844 22.09375 C 8.648438 22.058594 8.566406 22.023438 8.492188 22.058594 C 8.402344 22.105469 8.339844 22.332031 8.328125 22.476562 C 8.320312 22.605469 8.320312 22.730469 8.320312 22.863281 C 8.320312 22.882812 8.265625 22.898438 8.253906 22.902344 C 8.210938 22.921875 7.855469 23.054688 7.765625 23.128906 C 7.746094 23.148438 7.722656 23.171875 7.710938 23.199219 C 7.679688 23.265625 7.703125 23.359375 7.753906 23.410156 C 7.804688 23.464844 7.878906 23.492188 7.949219 23.515625 C 8.015625 23.542969 8.089844 23.566406 8.160156 23.585938 C 8.21875 23.605469 8.277344 23.625 8.339844 23.640625 L 8.347656 23.644531 L 8.351562 23.65625 C 8.367188 23.773438 8.371094 23.890625 8.382812 24.011719 C 8.390625 24.085938 8.390625 24.160156 8.410156 24.230469 C 8.433594 24.3125 8.46875 24.417969 8.566406 24.429688 C 8.601562 24.429688 8.636719 24.417969 8.667969 24.398438 C 8.765625 24.328125 8.859375 24.242188 8.957031 24.136719 C 9.011719 24.082031 9.0625 24.003906 9.117188 23.917969 C 9.207031 23.953125 9.292969 23.984375 9.371094 23.996094 C 9.507812 24.019531 9.632812 24.03125 9.753906 24.027344 C 9.789062 24.027344 9.824219 24.015625 9.851562 23.988281 C 9.925781 23.921875 9.890625 23.816406 9.863281 23.738281 C 9.835938 23.664062 9.796875 23.609375 9.757812 23.542969 C 9.699219 23.441406 9.632812 23.339844 9.578125 23.238281 L 9.574219 23.226562 L 9.582031 23.21875 C 9.621094 23.167969 9.65625 23.117188 9.691406 23.0625 C 9.738281 23.003906 9.78125 22.941406 9.820312 22.878906 C 9.863281 22.816406 9.90625 22.75 9.917969 22.671875 C 9.925781 22.601562 9.894531 22.511719 9.828125 22.476562 " fill-opacity="1" fill-rule="nonzero"/><path fill="#f14959" d="M 13.664062 21.121094 C 13.640625 21.109375 13.609375 21.105469 13.582031 21.101562 C 13.46875 21.097656 13.101562 21.207031 13.058594 21.21875 C 13.046875 21.222656 12.992188 21.242188 12.984375 21.230469 C 12.90625 21.121094 12.839844 21.035156 12.746094 20.921875 C 12.695312 20.855469 12.625 20.78125 12.550781 20.742188 C 12.484375 20.703125 12.402344 20.671875 12.332031 20.707031 C 12.238281 20.75 12.175781 20.976562 12.164062 21.121094 C 12.15625 21.25 12.15625 21.375 12.160156 21.511719 C 12.160156 21.527344 12.105469 21.542969 12.089844 21.546875 C 12.050781 21.566406 11.691406 21.699219 11.605469 21.777344 C 11.582031 21.796875 11.5625 21.816406 11.546875 21.84375 C 11.515625 21.910156 11.539062 22.003906 11.589844 22.054688 C 11.640625 22.109375 11.71875 22.136719 11.785156 22.160156 C 11.855469 22.1875 11.925781 22.210938 11.996094 22.230469 C 12.054688 22.25 12.113281 22.269531 12.175781 22.285156 L 12.183594 22.289062 L 12.1875 22.300781 C 12.203125 22.417969 12.210938 22.539062 12.21875 22.65625 C 12.226562 22.734375 12.226562 22.804688 12.25 22.878906 C 12.273438 22.957031 12.304688 23.0625 12.402344 23.074219 C 12.4375 23.074219 12.472656 23.0625 12.503906 23.042969 C 12.605469 22.972656 12.699219 22.886719 12.792969 22.785156 C 12.847656 22.726562 12.898438 22.648438 12.953125 22.566406 C 13.046875 22.597656 13.132812 22.628906 13.207031 22.644531 C 13.34375 22.664062 13.46875 22.679688 13.589844 22.671875 C 13.625 22.671875 13.660156 22.660156 13.6875 22.636719 C 13.761719 22.566406 13.726562 22.460938 13.699219 22.382812 C 13.671875 22.3125 13.632812 22.253906 13.59375 22.1875 C 13.535156 22.085938 13.472656 21.984375 13.414062 21.882812 L 13.410156 21.871094 L 13.417969 21.863281 C 13.457031 21.8125 13.492188 21.761719 13.53125 21.710938 C 13.574219 21.648438 13.617188 21.585938 13.660156 21.523438 C 13.699219 21.460938 13.742188 21.394531 13.753906 21.320312 C 13.765625 21.246094 13.730469 21.15625 13.664062 21.121094 " fill-opacity="1" fill-rule="nonzero"/><path fill="#f14959" d="M 17.503906 19.769531 C 17.476562 19.753906 17.449219 19.75 17.417969 19.746094 C 17.304688 19.742188 16.9375 19.851562 16.894531 19.863281 C 16.882812 19.867188 16.828125 19.890625 16.820312 19.875 C 16.742188 19.765625 16.679688 19.683594 16.585938 19.566406 C 16.53125 19.503906 16.460938 19.425781 16.386719 19.386719 C 16.324219 19.347656 16.238281 19.316406 16.167969 19.351562 C 16.078125 19.394531 16.011719 19.621094 16 19.765625 C 15.992188 19.894531 15.996094 20.019531 15.996094 20.15625 C 15.996094 20.171875 15.941406 20.1875 15.929688 20.191406 C 15.886719 20.210938 15.53125 20.34375 15.441406 20.421875 C 15.417969 20.441406 15.398438 20.460938 15.386719 20.488281 C 15.355469 20.558594 15.378906 20.648438 15.425781 20.699219 C 15.480469 20.753906 15.554688 20.78125 15.621094 20.808594 C 15.691406 20.832031 15.761719 20.855469 15.832031 20.878906 C 15.890625 20.894531 15.953125 20.914062 16.011719 20.929688 L 16.023438 20.9375 L 16.023438 20.945312 C 16.039062 21.0625 16.046875 21.183594 16.058594 21.300781 C 16.0625 21.378906 16.0625 21.449219 16.085938 21.523438 C 16.109375 21.601562 16.140625 21.710938 16.238281 21.71875 C 16.273438 21.722656 16.3125 21.707031 16.339844 21.6875 C 16.441406 21.617188 16.535156 21.53125 16.628906 21.429688 C 16.683594 21.371094 16.734375 21.292969 16.789062 21.210938 C 16.882812 21.246094 16.96875 21.273438 17.042969 21.289062 C 17.179688 21.3125 17.304688 21.324219 17.425781 21.316406 C 17.460938 21.316406 17.5 21.304688 17.523438 21.28125 C 17.597656 21.210938 17.5625 21.105469 17.535156 21.027344 C 17.511719 20.957031 17.46875 20.898438 17.429688 20.832031 C 17.371094 20.730469 17.308594 20.632812 17.25 20.527344 L 17.25 20.519531 L 17.253906 20.507812 C 17.292969 20.457031 17.328125 20.40625 17.367188 20.355469 C 17.410156 20.292969 17.457031 20.234375 17.496094 20.167969 C 17.535156 20.105469 17.582031 20.039062 17.589844 19.964844 C 17.601562 19.890625 17.566406 19.804688 17.503906 19.769531 " fill-opacity="1" fill-rule="nonzero"/><path fill="#ffffff" d="M 6.5 21.65625 C 10.152344 20.308594 13.824219 19.011719 17.511719 17.765625 L 17.359375 17.285156 C 13.667969 18.535156 9.992188 19.832031 6.335938 21.183594 L 6.5 21.65625 " fill-opacity="1" fill-rule="nonzero"/><path fill="#ffffff" d="M 8.046875 26.320312 C 11.699219 24.972656 15.371094 23.675781 19.058594 22.429688 L 18.90625 21.949219 C 15.214844 23.199219 11.539062 24.496094 7.882812 25.847656 L 8.046875 26.320312 " fill-opacity="1" fill-rule="nonzero"/><path fill="#8fd8ea" d="M 6.035156 25.082031 C 5.925781 24.554688 5.675781 24.03125 5.480469 23.53125 C 5.378906 23.261719 5.273438 22.988281 5.167969 22.71875 C 5.0625 22.449219 4.976562 22.339844 5.179688 22.109375 C 5.714844 21.515625 6.046875 20.878906 5.878906 20.042969 C 5.824219 19.753906 5.671875 20.085938 5.695312 20.234375 C 5.785156 20.785156 5.46875 21.230469 5.078125 21.566406 C 4.789062 21.816406 4.652344 22.125 4.703125 22.527344 C 4.765625 23.027344 5.039062 23.53125 5.214844 24 C 5.402344 24.492188 5.554688 25.066406 5.839844 25.503906 C 5.996094 25.738281 6.050781 25.152344 6.035156 25.082031 " fill-opacity="1" fill-rule="nonzero"/><path fill="#8fd8ea" d="M 6.710938 19.6875 C 7.855469 19.292969 9.003906 18.914062 10.144531 18.515625 C 11.261719 18.125 12.425781 17.753906 13.476562 17.199219 C 13.515625 17.175781 13.511719 16.964844 13.464844 16.972656 C 12.320312 17.167969 11.175781 17.609375 10.082031 18.011719 C 8.953125 18.425781 7.832031 18.851562 6.707031 19.277344 C 6.59375 19.320312 6.640625 19.710938 6.710938 19.6875 " fill-opacity="1" fill-rule="nonzero"/><g clip-path="url(#id2)"><path fill="#fdd950" d="M 21.8125 20.804688 C 22.042969 21.308594 22.558594 21.671875 23.101562 21.6875 C 23.195312 21.691406 23.292969 21.6875 23.375 21.730469 C 23.691406 21.910156 23.550781 23.089844 23.550781 23.441406 C 23.546875 24.117188 23.542969 24.796875 23.535156 25.472656 C 23.527344 26.453125 23.578125 27.441406 23.460938 28.414062 C 23.453125 28.476562 23.445312 28.542969 23.410156 28.59375 C 23.339844 28.691406 23.203125 28.703125 23.085938 28.714844 C 22.734375 28.75 22.390625 28.882812 22.128906 29.125 C 21.941406 29.296875 21.800781 29.527344 21.738281 29.78125 C 21.695312 29.941406 21.722656 30.257812 21.566406 30.363281 C 21.511719 30.402344 21.4375 30.40625 21.367188 30.410156 C 20.796875 30.433594 20.230469 30.425781 19.65625 30.425781 C 19 30.433594 18.339844 30.4375 17.679688 30.441406 C 16.207031 30.453125 14.730469 30.460938 13.257812 30.472656 C 11.433594 30.480469 9.625 30.550781 7.800781 30.546875 C 7.535156 30.546875 7.398438 30.441406 7.414062 30.152344 C 7.429688 29.898438 7.4375 29.636719 7.371094 29.390625 C 7.253906 28.960938 6.914062 28.609375 6.5 28.492188 C 6.382812 28.457031 6.242188 28.429688 6.183594 28.320312 C 6.15625 28.269531 6.152344 28.210938 6.148438 28.152344 C 6.125 27.632812 6.128906 27.109375 6.128906 26.589844 C 6.128906 25.226562 6.070312 23.886719 6.164062 22.515625 C 6.195312 22.054688 6.5625 22.113281 6.898438 22.027344 C 7.125 21.96875 7.375 21.898438 7.546875 21.722656 C 7.789062 21.46875 7.875 21.015625 7.945312 20.6875 C 7.960938 20.617188 7.976562 20.542969 8.019531 20.488281 C 8.105469 20.371094 8.269531 20.359375 8.414062 20.355469 C 9.148438 20.339844 9.886719 20.332031 10.625 20.332031 C 11.636719 20.335938 12.648438 20.351562 13.65625 20.355469 C 15.074219 20.363281 16.488281 20.375 17.902344 20.386719 C 18.515625 20.390625 19.125 20.394531 19.738281 20.402344 C 20.34375 20.40625 20.925781 20.398438 21.53125 20.449219 C 21.578125 20.453125 21.625 20.457031 21.664062 20.484375 C 21.714844 20.519531 21.734375 20.585938 21.753906 20.648438 C 21.773438 20.703125 21.792969 20.753906 21.8125 20.804688 " fill-opacity="1" fill-rule="nonzero"/></g><g clip-path="url(#id3)"><path fill="#fbc646" d="M 23.550781 23.441406 C 23.550781 23.089844 23.691406 21.910156 23.375 21.730469 C 23.292969 21.6875 23.195312 21.691406 23.101562 21.6875 C 23.03125 21.683594 22.960938 21.675781 22.890625 21.664062 C 22.910156 22.492188 22.898438 23.324219 22.863281 24.152344 C 22.820312 25.203125 22.738281 26.265625 22.570312 27.296875 C 22.542969 27.457031 22.507812 27.621094 22.40625 27.738281 C 22.304688 27.851562 22.15625 27.902344 22.023438 27.964844 C 21.457031 28.210938 20.988281 28.691406 20.746094 29.273438 C 20.699219 29.386719 20.65625 29.503906 20.566406 29.578125 C 20.460938 29.667969 20.316406 29.675781 20.183594 29.679688 C 19.792969 29.691406 19.402344 29.703125 19.011719 29.710938 C 17.0625 29.757812 15.113281 29.765625 13.164062 29.734375 C 11.246094 29.699219 9.332031 29.574219 7.417969 29.667969 C 7.429688 29.828125 7.421875 29.992188 7.414062 30.152344 C 7.398438 30.441406 7.535156 30.546875 7.800781 30.546875 C 9.625 30.550781 11.433594 30.480469 13.257812 30.472656 C 14.730469 30.460938 16.207031 30.453125 17.679688 30.441406 C 18.339844 30.4375 19 30.433594 19.65625 30.425781 C 20.230469 30.425781 20.796875 30.433594 21.367188 30.410156 C 21.4375 30.40625 21.511719 30.402344 21.566406 30.363281 C 21.722656 30.257812 21.695312 29.941406 21.738281 29.78125 C 21.800781 29.527344 21.941406 29.296875 22.128906 29.125 C 22.390625 28.882812 22.734375 28.75 23.085938 28.714844 C 23.203125 28.703125 23.339844 28.691406 23.410156 28.59375 C 23.445312 28.542969 23.453125 28.476562 23.460938 28.414062 C 23.578125 27.441406 23.527344 26.453125 23.535156 25.472656 C 23.542969 24.796875 23.546875 24.117188 23.550781 23.441406 " fill-opacity="1" fill-rule="nonzero"/></g><g clip-path="url(#id4)"><path fill="#ffffff" d="M 21.402344 21.203125 L 21.371094 21.21875 C 21.59375 21.691406 22.085938 22.027344 22.609375 22.046875 C 22.699219 22.046875 22.789062 22.042969 22.855469 22.082031 C 22.886719 22.097656 22.914062 22.128906 22.9375 22.175781 C 22.972656 22.242188 22.996094 22.339844 23.011719 22.449219 C 23.023438 22.5625 23.03125 22.691406 23.03125 22.820312 C 23.03125 23.132812 23 23.457031 23 23.613281 C 23 24.230469 22.992188 24.851562 22.988281 25.46875 C 22.984375 25.976562 22.976562 26.484375 22.96875 26.992188 C 22.96875 27.015625 22.96875 27.039062 22.96875 27.0625 C 22.96875 27.203125 22.972656 27.34375 22.972656 27.480469 C 22.972656 27.550781 22.972656 27.617188 22.96875 27.6875 C 22.964844 27.757812 22.96875 27.882812 22.953125 28 C 22.945312 28.0625 22.933594 28.117188 22.917969 28.164062 C 22.902344 28.207031 22.878906 28.242188 22.855469 28.257812 C 22.84375 28.265625 22.820312 28.269531 22.792969 28.273438 C 22.503906 28.320312 22.207031 28.394531 21.953125 28.535156 C 21.695312 28.675781 21.480469 28.882812 21.34375 29.1875 C 21.324219 29.234375 21.3125 29.296875 21.296875 29.367188 C 21.28125 29.472656 21.265625 29.597656 21.242188 29.703125 C 21.230469 29.753906 21.21875 29.800781 21.203125 29.839844 C 21.1875 29.875 21.167969 29.898438 21.152344 29.910156 C 21.105469 29.941406 21.042969 29.945312 20.980469 29.949219 C 20.628906 29.960938 20.28125 29.964844 19.933594 29.964844 C 19.746094 29.964844 19.558594 29.964844 19.371094 29.964844 C 18.753906 29.96875 18.132812 29.972656 17.511719 29.976562 C 16.125 29.988281 14.738281 29.996094 13.351562 30.003906 C 11.710938 30.011719 10.082031 30.074219 8.441406 30.074219 C 8.367188 30.074219 8.292969 30.074219 8.21875 30.074219 C 8.105469 30.070312 8.019531 30.050781 7.96875 30.007812 C 7.941406 29.984375 7.921875 29.957031 7.910156 29.921875 C 7.894531 29.886719 7.886719 29.839844 7.886719 29.785156 C 7.886719 29.773438 7.886719 29.761719 7.890625 29.75 C 7.894531 29.664062 7.898438 29.578125 7.898438 29.492188 C 7.898438 29.339844 7.886719 29.1875 7.84375 29.039062 C 7.734375 28.636719 7.402344 28.308594 7.003906 28.195312 C 6.945312 28.179688 6.886719 28.167969 6.839844 28.144531 C 6.789062 28.125 6.75 28.097656 6.726562 28.054688 C 6.707031 28.019531 6.703125 27.96875 6.699219 27.917969 C 6.683594 27.566406 6.679688 27.214844 6.679688 26.863281 C 6.679688 26.738281 6.679688 26.613281 6.679688 26.488281 C 6.679688 25.785156 6.664062 25.09375 6.664062 24.398438 C 6.664062 23.855469 6.671875 23.316406 6.710938 22.769531 C 6.71875 22.667969 6.746094 22.601562 6.78125 22.550781 C 6.835938 22.476562 6.921875 22.441406 7.027344 22.417969 C 7.132812 22.394531 7.257812 22.382812 7.378906 22.355469 C 7.59375 22.300781 7.832031 22.234375 8 22.066406 C 8.121094 21.945312 8.203125 21.777344 8.257812 21.605469 C 8.316406 21.433594 8.355469 21.253906 8.386719 21.101562 C 8.402344 21.039062 8.417969 20.980469 8.449219 20.9375 C 8.484375 20.890625 8.535156 20.863281 8.597656 20.847656 C 8.660156 20.832031 8.726562 20.828125 8.792969 20.828125 C 9.488281 20.8125 10.183594 20.808594 10.875 20.808594 C 11.828125 20.8125 12.777344 20.824219 13.726562 20.828125 C 15.058594 20.835938 16.390625 20.84375 17.722656 20.855469 C 18.296875 20.859375 18.871094 20.863281 19.445312 20.867188 C 20.019531 20.875 20.5625 20.867188 21.132812 20.914062 C 21.175781 20.914062 21.214844 20.921875 21.238281 20.9375 C 21.257812 20.949219 21.273438 20.96875 21.28125 20.992188 C 21.292969 21.015625 21.304688 21.042969 21.3125 21.074219 C 21.328125 21.121094 21.347656 21.171875 21.371094 21.21875 L 21.402344 21.203125 L 21.429688 21.1875 C 21.410156 21.144531 21.390625 21.097656 21.375 21.050781 C 21.367188 21.023438 21.355469 20.992188 21.34375 20.960938 C 21.328125 20.933594 21.308594 20.902344 21.277344 20.882812 C 21.230469 20.851562 21.179688 20.847656 21.136719 20.84375 C 20.566406 20.796875 20.015625 20.804688 19.445312 20.800781 C 18.871094 20.796875 18.296875 20.792969 17.722656 20.785156 C 16.390625 20.777344 15.058594 20.765625 13.726562 20.757812 C 12.777344 20.753906 11.828125 20.742188 10.875 20.738281 C 10.183594 20.738281 9.488281 20.746094 8.792969 20.757812 C 8.726562 20.761719 8.652344 20.761719 8.582031 20.78125 C 8.511719 20.800781 8.445312 20.832031 8.398438 20.894531 C 8.351562 20.953125 8.339844 21.023438 8.324219 21.085938 C 8.289062 21.238281 8.253906 21.417969 8.195312 21.585938 C 8.140625 21.75 8.066406 21.90625 7.957031 22.015625 C 7.804688 22.167969 7.578125 22.234375 7.363281 22.289062 C 7.210938 22.324219 7.042969 22.332031 6.90625 22.382812 C 6.835938 22.410156 6.777344 22.449219 6.730469 22.511719 C 6.683594 22.570312 6.652344 22.65625 6.644531 22.765625 C 6.605469 23.3125 6.597656 23.855469 6.597656 24.398438 C 6.597656 25.09375 6.613281 25.789062 6.613281 26.488281 C 6.613281 26.613281 6.613281 26.738281 6.613281 26.863281 C 6.613281 27.214844 6.617188 27.570312 6.632812 27.921875 C 6.636719 27.972656 6.640625 28.035156 6.667969 28.089844 C 6.703125 28.148438 6.757812 28.183594 6.8125 28.207031 C 6.871094 28.234375 6.933594 28.246094 6.988281 28.261719 C 7.363281 28.367188 7.675781 28.679688 7.78125 29.058594 C 7.820312 29.199219 7.832031 29.34375 7.832031 29.492188 C 7.832031 29.574219 7.828125 29.660156 7.824219 29.746094 C 7.824219 29.757812 7.820312 29.773438 7.820312 29.785156 C 7.820312 29.847656 7.832031 29.902344 7.847656 29.945312 C 7.875 30.015625 7.921875 30.066406 7.984375 30.097656 C 8.050781 30.128906 8.128906 30.140625 8.21875 30.140625 C 8.292969 30.140625 8.367188 30.140625 8.441406 30.140625 C 10.082031 30.140625 11.710938 30.082031 13.351562 30.070312 C 14.738281 30.066406 16.125 30.054688 17.511719 30.046875 C 18.132812 30.042969 18.753906 30.035156 19.371094 30.03125 C 19.558594 30.03125 19.746094 30.03125 19.933594 30.03125 C 20.28125 30.03125 20.628906 30.03125 20.984375 30.015625 C 21.046875 30.011719 21.121094 30.011719 21.1875 29.96875 C 21.230469 29.9375 21.257812 29.882812 21.28125 29.820312 C 21.3125 29.722656 21.328125 29.601562 21.347656 29.488281 C 21.363281 29.375 21.378906 29.265625 21.40625 29.214844 C 21.53125 28.925781 21.738281 28.730469 21.984375 28.597656 C 22.230469 28.460938 22.515625 28.386719 22.804688 28.34375 C 22.832031 28.339844 22.863281 28.335938 22.894531 28.316406 C 22.933594 28.285156 22.960938 28.238281 22.980469 28.1875 C 23.007812 28.105469 23.019531 28.007812 23.027344 27.917969 C 23.03125 27.824219 23.03125 27.738281 23.035156 27.691406 C 23.039062 27.621094 23.039062 27.550781 23.039062 27.480469 C 23.039062 27.339844 23.035156 27.199219 23.035156 27.0625 C 23.035156 27.039062 23.035156 27.015625 23.035156 26.992188 C 23.042969 26.484375 23.050781 25.976562 23.054688 25.46875 C 23.058594 24.851562 23.066406 24.234375 23.066406 23.613281 C 23.066406 23.464844 23.097656 23.136719 23.097656 22.820312 C 23.097656 22.644531 23.085938 22.472656 23.058594 22.332031 C 23.042969 22.257812 23.023438 22.195312 22.996094 22.140625 C 22.96875 22.089844 22.933594 22.046875 22.886719 22.019531 C 22.796875 21.972656 22.699219 21.980469 22.613281 21.976562 C 22.113281 21.960938 21.640625 21.636719 21.429688 21.1875 L 21.402344 21.203125 " fill-opacity="1" fill-rule="nonzero"/></g><path fill="#f14959" d="M 11.90625 25.136719 C 11.886719 25.113281 11.859375 25.101562 11.835938 25.089844 C 11.726562 25.042969 11.347656 25.027344 11.304688 25.023438 C 11.289062 25.023438 11.230469 25.027344 11.226562 25.007812 C 11.1875 24.878906 11.152344 24.78125 11.101562 24.640625 C 11.070312 24.558594 11.027344 24.464844 10.972656 24.402344 C 10.921875 24.34375 10.855469 24.285156 10.773438 24.296875 C 10.675781 24.308594 10.542969 24.5 10.488281 24.632812 C 10.4375 24.75 10.402344 24.871094 10.359375 25 C 10.355469 25.015625 10.296875 25.011719 10.285156 25.011719 C 10.238281 25.015625 9.859375 25.023438 9.75 25.066406 C 9.722656 25.074219 9.699219 25.089844 9.679688 25.109375 C 9.625 25.164062 9.621094 25.257812 9.652344 25.324219 C 9.683594 25.394531 9.746094 25.445312 9.800781 25.492188 C 9.859375 25.539062 9.917969 25.585938 9.980469 25.628906 C 10.03125 25.664062 10.078125 25.703125 10.132812 25.738281 L 10.140625 25.746094 L 10.140625 25.757812 C 10.117188 25.875 10.085938 25.988281 10.058594 26.105469 C 10.039062 26.179688 10.019531 26.246094 10.015625 26.324219 C 10.011719 26.40625 10.007812 26.519531 10.101562 26.558594 C 10.132812 26.574219 10.171875 26.574219 10.207031 26.566406 C 10.320312 26.53125 10.4375 26.480469 10.5625 26.417969 C 10.628906 26.378906 10.703125 26.324219 10.78125 26.261719 C 10.855469 26.328125 10.929688 26.382812 10.996094 26.421875 C 11.117188 26.488281 11.234375 26.542969 11.347656 26.578125 C 11.382812 26.589844 11.421875 26.589844 11.453125 26.574219 C 11.546875 26.535156 11.542969 26.421875 11.542969 26.339844 C 11.542969 26.261719 11.523438 26.195312 11.503906 26.121094 C 11.480469 26.003906 11.453125 25.886719 11.433594 25.769531 L 11.433594 25.761719 L 11.441406 25.753906 C 11.492188 25.71875 11.542969 25.683594 11.59375 25.644531 C 11.65625 25.601562 11.71875 25.558594 11.773438 25.511719 C 11.832031 25.46875 11.894531 25.417969 11.929688 25.351562 C 11.960938 25.285156 11.957031 25.191406 11.90625 25.136719 " fill-opacity="1" fill-rule="nonzero"/><path fill="#f14959" d="M 15.960938 25.136719 C 15.941406 25.113281 15.917969 25.101562 15.890625 25.089844 C 15.78125 25.042969 15.402344 25.027344 15.359375 25.023438 C 15.34375 25.023438 15.289062 25.027344 15.28125 25.007812 C 15.242188 24.878906 15.210938 24.78125 15.15625 24.640625 C 15.125 24.558594 15.082031 24.464844 15.027344 24.402344 C 14.976562 24.34375 14.910156 24.285156 14.828125 24.296875 C 14.730469 24.308594 14.597656 24.5 14.542969 24.632812 C 14.492188 24.75 14.457031 24.871094 14.414062 25 C 14.410156 25.015625 14.351562 25.011719 14.339844 25.011719 C 14.292969 25.015625 13.914062 25.023438 13.804688 25.066406 C 13.78125 25.074219 13.753906 25.089844 13.734375 25.109375 C 13.679688 25.164062 13.675781 25.257812 13.707031 25.324219 C 13.738281 25.394531 13.800781 25.445312 13.855469 25.492188 C 13.914062 25.539062 13.972656 25.585938 14.035156 25.628906 C 14.085938 25.664062 14.132812 25.703125 14.1875 25.738281 L 14.195312 25.746094 L 14.195312 25.757812 C 14.171875 25.875 14.140625 25.988281 14.113281 26.105469 C 14.097656 26.179688 14.074219 26.246094 14.070312 26.324219 C 14.066406 26.40625 14.066406 26.519531 14.15625 26.558594 C 14.1875 26.574219 14.226562 26.574219 14.261719 26.566406 C 14.378906 26.53125 14.492188 26.480469 14.617188 26.417969 C 14.683594 26.378906 14.757812 26.324219 14.835938 26.261719 C 14.914062 26.328125 14.984375 26.382812 15.050781 26.421875 C 15.171875 26.488281 15.289062 26.542969 15.40625 26.578125 C 15.4375 26.589844 15.476562 26.589844 15.507812 26.574219 C 15.601562 26.535156 15.601562 26.421875 15.597656 26.339844 C 15.597656 26.261719 15.578125 26.195312 15.5625 26.121094 C 15.535156 26.003906 15.507812 25.886719 15.488281 25.769531 L 15.488281 25.761719 L 15.496094 25.753906 C 15.546875 25.71875 15.597656 25.683594 15.648438 25.644531 C 15.710938 25.601562 15.773438 25.558594 15.832031 25.511719 C 15.886719 25.46875 15.953125 25.417969 15.984375 25.351562 C 16.015625 25.285156 16.011719 25.191406 15.960938 25.136719 " fill-opacity="1" fill-rule="nonzero"/><path fill="#f14959" d="M 20.015625 25.136719 C 19.996094 25.113281 19.972656 25.101562 19.945312 25.089844 C 19.835938 25.042969 19.457031 25.027344 19.414062 25.023438 C 19.398438 25.023438 19.34375 25.027344 19.339844 25.007812 C 19.300781 24.878906 19.265625 24.78125 19.210938 24.640625 C 19.183594 24.558594 19.136719 24.464844 19.082031 24.402344 C 19.035156 24.34375 18.964844 24.285156 18.886719 24.296875 C 18.785156 24.308594 18.652344 24.5 18.597656 24.632812 C 18.550781 24.75 18.511719 24.871094 18.46875 25 C 18.464844 25.015625 18.410156 25.011719 18.394531 25.011719 C 18.347656 25.015625 17.96875 25.023438 17.863281 25.066406 C 17.835938 25.074219 17.808594 25.089844 17.789062 25.109375 C 17.738281 25.164062 17.730469 25.257812 17.761719 25.324219 C 17.792969 25.394531 17.855469 25.445312 17.914062 25.492188 C 17.96875 25.539062 18.03125 25.585938 18.089844 25.628906 C 18.140625 25.664062 18.191406 25.703125 18.242188 25.738281 L 18.25 25.746094 L 18.25 25.757812 C 18.226562 25.875 18.195312 25.988281 18.167969 26.105469 C 18.152344 26.179688 18.128906 26.246094 18.125 26.324219 C 18.125 26.40625 18.121094 26.519531 18.210938 26.558594 C 18.242188 26.574219 18.28125 26.574219 18.316406 26.566406 C 18.433594 26.53125 18.546875 26.480469 18.671875 26.417969 C 18.738281 26.378906 18.8125 26.324219 18.890625 26.261719 C 18.96875 26.328125 19.039062 26.382812 19.105469 26.421875 C 19.230469 26.488281 19.34375 26.542969 19.460938 26.578125 C 19.492188 26.589844 19.53125 26.589844 19.566406 26.574219 C 19.65625 26.535156 19.65625 26.421875 19.652344 26.339844 C 19.652344 26.261719 19.632812 26.195312 19.617188 26.121094 C 19.589844 26.003906 19.5625 25.886719 19.542969 25.769531 L 19.542969 25.761719 L 19.550781 25.753906 C 19.601562 25.71875 19.652344 25.683594 19.707031 25.644531 C 19.765625 25.601562 19.828125 25.558594 19.886719 25.511719 C 19.941406 25.46875 20.007812 25.417969 20.039062 25.351562 C 20.070312 25.285156 20.066406 25.191406 20.015625 25.136719 " fill-opacity="1" fill-rule="nonzero"/><path fill="#ffffff" d="M 9.015625 23.25 C 10.988281 23.222656 12.964844 23.207031 14.9375 23.207031 C 16.84375 23.207031 18.75 23.21875 20.65625 23.246094 L 20.660156 22.738281 C 18.753906 22.714844 16.847656 22.703125 14.9375 22.703125 C 12.960938 22.703125 10.984375 22.714844 9.007812 22.742188 L 9.015625 23.25 " fill-opacity="1" fill-rule="nonzero"/><path fill="#ffffff" d="M 9.015625 28.179688 C 10.988281 28.152344 12.964844 28.136719 14.9375 28.136719 C 16.84375 28.136719 18.75 28.148438 20.65625 28.175781 L 20.660156 27.671875 C 18.753906 27.644531 16.847656 27.632812 14.9375 27.632812 C 12.960938 27.632812 10.984375 27.644531 9.007812 27.671875 L 9.015625 28.179688 " fill-opacity="1" fill-rule="nonzero"/><path fill="#feea7b" d="M 7.472656 26.519531 C 7.53125 25.988281 7.464844 25.425781 7.4375 24.890625 C 7.425781 24.597656 7.410156 24.308594 7.394531 24.015625 C 7.382812 23.722656 7.328125 23.484375 7.597656 23.308594 C 7.910156 23.097656 8.222656 22.976562 8.480469 22.679688 C 8.726562 22.394531 8.867188 22.042969 8.910156 21.664062 C 8.9375 21.449219 8.765625 21.199219 8.714844 21.53125 C 8.640625 22.007812 8.265625 22.378906 7.859375 22.582031 C 7.480469 22.769531 7.175781 22.808594 7.074219 23.289062 C 6.964844 23.792969 7.070312 24.382812 7.09375 24.890625 C 7.113281 25.453125 7.097656 26.046875 7.210938 26.59375 C 7.265625 26.851562 7.453125 26.707031 7.472656 26.519531 " fill-opacity="1" fill-rule="nonzero"/><path fill="#feea7b" d="M 9.894531 21.464844 C 11.085938 21.476562 12.277344 21.496094 13.46875 21.507812 C 14.644531 21.519531 15.878906 21.554688 17.039062 21.367188 C 17.09375 21.359375 17.09375 21.148438 17.039062 21.136719 C 15.878906 20.9375 14.640625 20.964844 13.464844 20.980469 C 12.273438 20.996094 11.085938 21.027344 9.894531 21.054688 C 9.792969 21.058594 9.792969 21.464844 9.894531 21.464844 " fill-opacity="1" fill-rule="nonzero"/></svg>