<svg xmlns="http://www.w3.org/2000/svg" xmlns:xlink="http://www.w3.org/1999/xlink" width="120" zoomAndPan="magnify" viewBox="0 0 90 44.999999" height="60" preserveAspectRatio="xMidYMid meet" version="1.0"><defs><g/><clipPath id="id1"><path d="M 4.5 20 L 23.25 20 L 23.25 31.273438 L 4.5 31.273438 Z M 4.5 20 " clip-rule="nonzero"/></clipPath><clipPath id="id2"><path d="M 4.5 17 L 23.25 17 L 23.25 29 L 4.5 29 Z M 4.5 17 " clip-rule="nonzero"/></clipPath><clipPath id="id3"><path d="M 4.5 15.542969 L 23.25 15.542969 L 23.25 27 L 4.5 27 Z M 4.5 15.542969 " clip-rule="nonzero"/></clipPath></defs><rect x="-9" width="108" fill="#ffffff" y="-4.5" height="53.999999" fill-opacity="1"/><rect x="-9" width="108" fill="#5864ff" y="-4.5" height="53.999999" fill-opacity="1"/><rect x="-9" width="108" fill="#ffffff" y="-4.5" height="53.999999" fill-opacity="1"/><rect x="-9" width="108" fill="#5864ff" y="-4.5" height="53.999999" fill-opacity="1"/><g fill="#ffffff" fill-opacity="1"><g transform="translate(24.770787, 27.374998)"><g><path d="M 15.6875 -11.0625 C 15.832031 -11.0625 15.945312 -11.023438 16.03125 -10.953125 C 16.113281 -10.878906 16.15625 -10.773438 16.15625 -10.640625 C 16.15625 -10.597656 16.144531 -10.539062 16.125 -10.46875 L 13.109375 -0.375 C 13.054688 -0.238281 12.988281 -0.140625 12.90625 -0.078125 C 12.832031 -0.0234375 12.71875 0 12.5625 0 L 10.515625 0 C 10.222656 0 10.039062 -0.125 9.96875 -0.375 L 8.421875 -5.625 C 8.390625 -5.75 8.351562 -5.8125 8.3125 -5.8125 C 8.28125 -5.8125 8.238281 -5.738281 8.1875 -5.59375 L 6.640625 -0.375 C 6.609375 -0.238281 6.546875 -0.140625 6.453125 -0.078125 C 6.367188 -0.0234375 6.253906 0 6.109375 0 L 3.984375 0 C 3.828125 0 3.707031 -0.0234375 3.625 -0.078125 C 3.550781 -0.140625 3.488281 -0.238281 3.4375 -0.375 L 0.40625 -10.46875 C 0.382812 -10.539062 0.375 -10.597656 0.375 -10.640625 C 0.375 -10.773438 0.414062 -10.878906 0.5 -10.953125 C 0.582031 -11.023438 0.695312 -11.0625 0.84375 -11.0625 L 3.3125 -11.0625 C 3.457031 -11.0625 3.5625 -11.035156 3.625 -10.984375 C 3.695312 -10.929688 3.75 -10.851562 3.78125 -10.75 L 5.359375 -5.21875 C 5.390625 -5.09375 5.425781 -5.03125 5.46875 -5.03125 C 5.5 -5.03125 5.523438 -5.070312 5.546875 -5.15625 L 7.109375 -10.75 C 7.160156 -10.957031 7.320312 -11.0625 7.59375 -11.0625 L 9.671875 -11.0625 C 9.816406 -11.0625 9.925781 -11.035156 10 -10.984375 C 10.070312 -10.929688 10.125 -10.851562 10.15625 -10.75 L 11.796875 -5.078125 C 11.816406 -5.023438 11.84375 -4.992188 11.875 -4.984375 C 11.914062 -4.972656 11.941406 -4.992188 11.953125 -5.046875 L 13.46875 -10.75 C 13.519531 -10.957031 13.679688 -11.0625 13.953125 -11.0625 Z M 15.6875 -11.0625 "/></g></g></g><g fill="#ffffff" fill-opacity="1"><g transform="translate(41.301857, 27.374998)"><g><path d="M 3.390625 -3.15625 C 3.390625 -2.71875 3.53125 -2.382812 3.8125 -2.15625 C 4.09375 -1.925781 4.460938 -1.8125 4.921875 -1.8125 C 5.191406 -1.8125 5.445312 -1.875 5.6875 -2 C 5.9375 -2.125 6.222656 -2.34375 6.546875 -2.65625 C 6.585938 -2.695312 6.625 -2.71875 6.65625 -2.71875 C 6.695312 -2.71875 6.765625 -2.703125 6.859375 -2.671875 L 8.21875 -2.109375 C 8.300781 -2.085938 8.34375 -2.03125 8.34375 -1.9375 C 8.34375 -1.875 8.316406 -1.816406 8.265625 -1.765625 C 7.753906 -1.035156 7.21875 -0.53125 6.65625 -0.25 C 6.09375 0.0195312 5.378906 0.15625 4.515625 0.15625 C 3.734375 0.15625 3.019531 -0.0078125 2.375 -0.34375 C 1.738281 -0.6875 1.234375 -1.160156 0.859375 -1.765625 C 0.492188 -2.367188 0.3125 -3.050781 0.3125 -3.8125 C 0.3125 -4.632812 0.5 -5.363281 0.875 -6 C 1.257812 -6.644531 1.769531 -7.144531 2.40625 -7.5 C 3.039062 -7.863281 3.722656 -8.046875 4.453125 -8.046875 C 5.242188 -8.046875 5.941406 -7.875 6.546875 -7.53125 C 7.160156 -7.195312 7.640625 -6.707031 7.984375 -6.0625 C 8.335938 -5.425781 8.515625 -4.664062 8.515625 -3.78125 C 8.515625 -3.644531 8.5 -3.550781 8.46875 -3.5 C 8.4375 -3.445312 8.363281 -3.414062 8.25 -3.40625 L 3.609375 -3.40625 C 3.460938 -3.40625 3.390625 -3.320312 3.390625 -3.15625 Z M 5.359375 -4.953125 C 5.460938 -4.953125 5.53125 -4.960938 5.5625 -4.984375 C 5.601562 -5.003906 5.625 -5.0625 5.625 -5.15625 C 5.625 -5.40625 5.53125 -5.660156 5.34375 -5.921875 C 5.164062 -6.179688 4.914062 -6.3125 4.59375 -6.3125 C 4.257812 -6.3125 3.976562 -6.195312 3.75 -5.96875 C 3.519531 -5.738281 3.410156 -5.40625 3.421875 -4.96875 Z M 5.359375 -4.953125 "/></g></g></g><g fill="#ffffff" fill-opacity="1"><g transform="translate(50.096561, 27.374998)"><g><path d="M 3.390625 -3.15625 C 3.390625 -2.71875 3.53125 -2.382812 3.8125 -2.15625 C 4.09375 -1.925781 4.460938 -1.8125 4.921875 -1.8125 C 5.191406 -1.8125 5.445312 -1.875 5.6875 -2 C 5.9375 -2.125 6.222656 -2.34375 6.546875 -2.65625 C 6.585938 -2.695312 6.625 -2.71875 6.65625 -2.71875 C 6.695312 -2.71875 6.765625 -2.703125 6.859375 -2.671875 L 8.21875 -2.109375 C 8.300781 -2.085938 8.34375 -2.03125 8.34375 -1.9375 C 8.34375 -1.875 8.316406 -1.816406 8.265625 -1.765625 C 7.753906 -1.035156 7.21875 -0.53125 6.65625 -0.25 C 6.09375 0.0195312 5.378906 0.15625 4.515625 0.15625 C 3.734375 0.15625 3.019531 -0.0078125 2.375 -0.34375 C 1.738281 -0.6875 1.234375 -1.160156 0.859375 -1.765625 C 0.492188 -2.367188 0.3125 -3.050781 0.3125 -3.8125 C 0.3125 -4.632812 0.5 -5.363281 0.875 -6 C 1.257812 -6.644531 1.769531 -7.144531 2.40625 -7.5 C 3.039062 -7.863281 3.722656 -8.046875 4.453125 -8.046875 C 5.242188 -8.046875 5.941406 -7.875 6.546875 -7.53125 C 7.160156 -7.195312 7.640625 -6.707031 7.984375 -6.0625 C 8.335938 -5.425781 8.515625 -4.664062 8.515625 -3.78125 C 8.515625 -3.644531 8.5 -3.550781 8.46875 -3.5 C 8.4375 -3.445312 8.363281 -3.414062 8.25 -3.40625 L 3.609375 -3.40625 C 3.460938 -3.40625 3.390625 -3.320312 3.390625 -3.15625 Z M 5.359375 -4.953125 C 5.460938 -4.953125 5.53125 -4.960938 5.5625 -4.984375 C 5.601562 -5.003906 5.625 -5.0625 5.625 -5.15625 C 5.625 -5.40625 5.53125 -5.660156 5.34375 -5.921875 C 5.164062 -6.179688 4.914062 -6.3125 4.59375 -6.3125 C 4.257812 -6.3125 3.976562 -6.195312 3.75 -5.96875 C 3.519531 -5.738281 3.410156 -5.40625 3.421875 -4.96875 Z M 5.359375 -4.953125 "/></g></g></g><g fill="#ffffff" fill-opacity="1"><g transform="translate(58.891265, 27.374998)"><g><path d="M 4.8125 -0.625 C 4.195312 -0.101562 3.476562 0.15625 2.65625 0.15625 C 1.925781 0.15625 1.34375 -0.046875 0.90625 -0.453125 C 0.476562 -0.867188 0.265625 -1.394531 0.265625 -2.03125 C 0.265625 -2.601562 0.453125 -3.109375 0.828125 -3.546875 C 1.203125 -3.992188 1.734375 -4.335938 2.421875 -4.578125 C 3.109375 -4.828125 3.914062 -4.953125 4.84375 -4.953125 L 4.953125 -4.953125 C 5.097656 -4.953125 5.171875 -5.019531 5.171875 -5.15625 L 5.171875 -5.40625 C 5.171875 -5.988281 4.878906 -6.28125 4.296875 -6.28125 C 4.054688 -6.28125 3.832031 -6.222656 3.625 -6.109375 C 3.414062 -6.003906 3.25 -5.828125 3.125 -5.578125 C 3.09375 -5.503906 3.0625 -5.453125 3.03125 -5.421875 C 3 -5.398438 2.953125 -5.390625 2.890625 -5.390625 C 2.816406 -5.390625 2.765625 -5.394531 2.734375 -5.40625 L 0.78125 -5.796875 C 0.664062 -5.816406 0.609375 -5.882812 0.609375 -6 C 0.609375 -6.0625 0.628906 -6.15625 0.671875 -6.28125 C 1.085938 -7.457031 2.335938 -8.046875 4.421875 -8.046875 C 5.722656 -8.046875 6.644531 -7.832031 7.1875 -7.40625 C 7.726562 -6.976562 8 -6.375 8 -5.59375 L 8 -0.40625 C 8 -0.25 7.976562 -0.140625 7.9375 -0.078125 C 7.894531 -0.0234375 7.800781 0 7.65625 0 L 5.625 0 C 5.5 0 5.410156 -0.0390625 5.359375 -0.125 C 5.304688 -0.21875 5.265625 -0.347656 5.234375 -0.515625 L 5.21875 -0.625 C 5.207031 -0.726562 5.164062 -0.78125 5.09375 -0.78125 C 5.019531 -0.78125 4.925781 -0.726562 4.8125 -0.625 Z M 5.171875 -3.34375 C 5.171875 -3.4375 5.15625 -3.503906 5.125 -3.546875 C 5.09375 -3.585938 5.035156 -3.609375 4.953125 -3.609375 L 4.890625 -3.609375 C 4.703125 -3.609375 4.46875 -3.5625 4.1875 -3.46875 C 3.914062 -3.382812 3.675781 -3.253906 3.46875 -3.078125 C 3.257812 -2.898438 3.15625 -2.6875 3.15625 -2.4375 C 3.15625 -2.21875 3.226562 -2.046875 3.375 -1.921875 C 3.53125 -1.796875 3.742188 -1.734375 4.015625 -1.734375 C 4.328125 -1.734375 4.597656 -1.828125 4.828125 -2.015625 C 5.054688 -2.203125 5.171875 -2.378906 5.171875 -2.546875 Z M 5.171875 -3.34375 "/></g></g></g><g fill="#ffffff" fill-opacity="1"><g transform="translate(67.432562, 27.374998)"><g><path d="M 0.671875 0 C 0.523438 0 0.421875 -0.0234375 0.359375 -0.078125 C 0.304688 -0.128906 0.28125 -0.226562 0.28125 -0.375 L 0.28125 -1.046875 C 0.28125 -1.203125 0.296875 -1.316406 0.328125 -1.390625 C 0.367188 -1.472656 0.457031 -1.609375 0.59375 -1.796875 L 3.765625 -5.84375 C 3.804688 -5.894531 3.828125 -5.941406 3.828125 -5.984375 C 3.828125 -6.046875 3.757812 -6.078125 3.625 -6.078125 L 0.9375 -6.078125 C 0.8125 -6.078125 0.722656 -6.101562 0.671875 -6.15625 C 0.628906 -6.207031 0.609375 -6.296875 0.609375 -6.421875 L 0.609375 -7.609375 C 0.609375 -7.691406 0.632812 -7.757812 0.6875 -7.8125 C 0.738281 -7.875 0.800781 -7.90625 0.875 -7.90625 L 7.453125 -7.90625 C 7.546875 -7.90625 7.613281 -7.875 7.65625 -7.8125 C 7.707031 -7.757812 7.734375 -7.691406 7.734375 -7.609375 L 7.734375 -6.84375 C 7.734375 -6.726562 7.710938 -6.628906 7.671875 -6.546875 C 7.640625 -6.472656 7.578125 -6.367188 7.484375 -6.234375 L 4.234375 -2.125 C 4.179688 -2.050781 4.15625 -2 4.15625 -1.96875 C 4.15625 -1.882812 4.222656 -1.84375 4.359375 -1.84375 L 7.40625 -1.84375 C 7.632812 -1.84375 7.75 -1.75 7.75 -1.5625 L 7.75 -0.328125 C 7.75 -0.222656 7.71875 -0.140625 7.65625 -0.078125 C 7.59375 -0.0234375 7.5 0 7.375 0 Z M 0.671875 0 "/></g></g></g><g fill="#ffffff" fill-opacity="1"><g transform="translate(75.541582, 27.374998)"><g><path d="M 1.515625 2.453125 C 1.191406 2.453125 0.972656 2.429688 0.859375 2.390625 C 0.742188 2.359375 0.6875 2.269531 0.6875 2.125 L 0.6875 0.609375 C 0.6875 0.535156 0.71875 0.46875 0.78125 0.40625 C 0.84375 0.351562 0.953125 0.328125 1.109375 0.328125 L 2.15625 0.328125 C 2.445312 0.328125 2.6875 0.257812 2.875 0.125 C 3.0625 0 3.15625 -0.144531 3.15625 -0.3125 C 3.15625 -0.351562 3.144531 -0.40625 3.125 -0.46875 L 0.234375 -7.46875 C 0.210938 -7.53125 0.203125 -7.578125 0.203125 -7.609375 C 0.203125 -7.691406 0.234375 -7.757812 0.296875 -7.8125 C 0.359375 -7.875 0.429688 -7.90625 0.515625 -7.90625 L 3.046875 -7.90625 C 3.128906 -7.90625 3.207031 -7.875 3.28125 -7.8125 C 3.351562 -7.757812 3.398438 -7.691406 3.421875 -7.609375 L 4.703125 -4.03125 C 4.722656 -3.925781 4.757812 -3.875 4.8125 -3.875 C 4.863281 -3.875 4.910156 -3.925781 4.953125 -4.03125 L 6.234375 -7.609375 C 6.316406 -7.804688 6.445312 -7.90625 6.625 -7.90625 L 8.28125 -7.90625 C 8.375 -7.90625 8.445312 -7.875 8.5 -7.8125 C 8.550781 -7.757812 8.578125 -7.691406 8.578125 -7.609375 C 8.578125 -7.578125 8.566406 -7.53125 8.546875 -7.46875 L 5.640625 -0.46875 C 5.285156 0.375 4.9375 1 4.59375 1.40625 C 4.25 1.820312 3.847656 2.097656 3.390625 2.234375 C 2.929688 2.378906 2.304688 2.453125 1.515625 2.453125 Z M 1.515625 2.453125 "/></g></g></g><g clip-path="url(#id1)"><path fill="#5ce1e6" d="M 23.25 25.71875 L 13.875 31.273438 L 4.5 25.71875 L 13.875 20.191406 L 23.25 25.71875 " fill-opacity="1" fill-rule="nonzero"/></g><g clip-path="url(#id2)"><path fill="#5271ff" d="M 23.25 23.410156 L 13.875 28.960938 L 4.5 23.410156 L 13.875 17.878906 L 23.25 23.410156 " fill-opacity="1" fill-rule="nonzero"/></g><g clip-path="url(#id3)"><path fill="#5e17eb" d="M 23.25 21.097656 L 13.875 26.652344 L 4.5 21.097656 L 13.875 15.570312 L 23.25 21.097656 " fill-opacity="1" fill-rule="nonzero"/></g></svg>